<?xml version="1.0" standalone="no"?>
<!DOCTYPE svg PUBLIC "-//W3C//DTD SVG 20010904//EN"
 "http://www.w3.org/TR/2001/REC-SVG-20010904/DTD/svg10.dtd">
<svg version="1.0" xmlns="http://www.w3.org/2000/svg"
 width="700.000000pt" height="700.000000pt" viewBox="0 0 700.000000 700.000000"
 preserveAspectRatio="xMidYMid meet">
<metadata>
Created by potrace 1.14, written by Peter Selinger 2001-2017
</metadata>
<g transform="translate(0.000000,700.000000) scale(0.100000,-0.100000)"
fill="#000000" stroke="none">
<path d="M3435 6963 c-60 -36 -661 -383 -745 -431 -25 -14 -155 -89 -290 -167
-135 -78 -346 -201 -470 -272 -231 -133 -421 -243 -920 -531 -308 -178 -355
-205 -442 -254 l-58 -33 0 -1775 0 -1775 243 -139 c779 -448 812 -467 877
-506 25 -15 169 -98 320 -185 276 -159 615 -355 680 -394 19 -11 41 -24 49
-28 8 -3 63 -35 122 -69 60 -35 128 -74 151 -87 24 -13 142 -82 263 -152 121
-70 235 -136 253 -146 l33 -19 67 39 c37 21 139 80 227 131 88 51 228 131 310
179 83 48 159 92 170 98 11 7 54 32 95 56 41 24 95 55 120 69 155 87 453 259
482 279 15 11 29 19 32 19 3 0 29 14 58 31 29 18 73 43 98 57 25 14 57 32 72
41 109 64 972 562 1012 584 28 16 56 32 61 37 6 4 35 21 65 38 30 16 70 38 87
48 l33 19 0 1775 0 1775 -252 145 c-138 80 -257 146 -264 148 -8 2 -14 8 -14
13 0 5 -4 9 -10 9 -5 0 -47 22 -92 49 -46 27 -99 58 -118 68 -19 11 -61 35
-93 54 -32 19 -80 46 -105 60 -26 14 -87 50 -137 79 -49 29 -103 60 -120 70
-16 9 -118 68 -225 130 -107 62 -211 122 -230 133 -19 10 -165 95 -325 187
-710 410 -1005 580 -1008 580 -1 -1 -29 -17 -62 -37z"/>
</g>
</svg>
