<svg xmlns="http://www.w3.org/2000/svg" viewBox="0 0 343 36.35"><path d="M34.59 35.06C41.07 32.75 44.64 28.2 45 19.7H24.19c.31 8.5 3.87 13.05 10.4 15.36z" fill="#eb0029" stroke="#eb0029" stroke-miterlimit="10" stroke-width=".17"/><path d="M14.37 2.55a5.07 5.07 0 012 .41 5 5 0 001.77.37v.85a1.19 1.19 0 01-1.32 1.29h-.51a1.65 1.65 0 00-1.77 1.6h1.26a1.19 1.19 0 011.22-1 2.58 2.58 0 011.36.41 2 2 0 001.12.37.91.91 0 001-.92 1.75 1.75 0 01-1.6-1.83 8.33 8.33 0 00.92.07c1.39 0 2 .51 2 1.46s-.92 1.8-2.31 1.8a3.47 3.47 0 01-1.49-.34 1.81 1.81 0 00-.68-.24A3.74 3.74 0 0117 8.49a7 7 0 00-2-.37 4.4 4.4 0 01-3.64-2.28 2.67 2.67 0 00-.07.48c0 2 1.46 2.89 3.84 3.06 2.82.2 3.94 1.7 3.94 3.4A2.53 2.53 0 0118 14.85c.2 1.39 1.16 2.79 3.4 4v3.77c-1-.1-1.66-.78-1.77-2.48A2 2 0 0017.7 18c-2.21-.37-3.84-1.73-3.84-4.08 0-1.7.88-2.79 2.11-2.79a1.7 1.7 0 011.66 1 2 2 0 00-2.24-2c-1.7 0-3.19 1.46-3.19 3.77a5 5 0 003.57 4.93c-3.13 1.19-4.82 3.91-5 8.32C8.36 27.42 7 28.81 7 31.09c0 1 .34 1.46 1.29 1.6l.61.1a3 3 0 012.85 3V36h-.88a2.27 2.27 0 00-.41-1.46H9.07A2.57 2.57 0 019.55 36H8.7a2.24 2.24 0 00-.58-1.46H6.73A2.51 2.51 0 017.27 36h-.75c-1.12 0-1.66-.54-1.66-2v-4.88a2 2 0 01-1.94-1.53c1.66-.17 2.79-1.09 3.16-3.3.54-3.13 2.07-4.72 4-4.72a2.19 2.19 0 011 .2 1.92 1.92 0 00-1.83-1.16C7.64 18.62 6.18 20 5.37 22a3.1 3.1 0 01-2.17-3.19c0-2.51 1.49-4 1.49-5.78 0-1.36-.58-2.11-1.63-2.11-1.29 0-2 1-2 2.55v.41a1.58 1.58 0 011.39 1.7A2.39 2.39 0 010 17.8v-2.55A8.55 8.55 0 01.37 12 2.83 2.83 0 013 10.12c1.66 0 2.75 1.19 2.75 3.09 0 1.09-.41 2-.41 3.19A1.48 1.48 0 007 18.11c1.19 0 2.21-.65 2.21-2.58v-.44a8.31 8.31 0 01-3.4-6.43 8.48 8.48 0 011.7-5.4A2.16 2.16 0 009 4.76a5 5 0 011.46-.82c-1-.1-1.63-.61-1.7-1.43h1.6A1.5 1.5 0 009 1.83a3.63 3.63 0 011.9-.44 6.13 6.13 0 013.47 1.16zm-5 10.74a5.16 5.16 0 011.29-2.17A4.1 4.1 0 018 7.3a3.59 3.59 0 01.54-2 3.59 3.59 0 00-1.68 3.4 5.45 5.45 0 002.52 4.58zm-.5-6.09c0 1.73 1.32 2.82 3.47 2.82a3.74 3.74 0 01-2.11-3.36 3.44 3.44 0 01.41-1.73A2.13 2.13 0 008.87 7.2zm12.3 27.31a2.49 2.49 0 01.44 1.49h-.88a2.5 2.5 0 00-.48-1.46h-1.39A3 3 0 0119.4 36h-.71a1.81 1.81 0 01-1.8-1.22L15 30.2a2.17 2.17 0 01-2-1c2.28-.2 4-1.39 4-3.6a3.26 3.26 0 00-.54-1.87c0 1.49-.54 2.21-1.32 2.55a2.61 2.61 0 00-1.94-2.41 3.62 3.62 0 013.13-3.43c2.62 1.36 3.53 3.53 3.53 6.93a2.72 2.72 0 00-2.28 2.51 2.57 2.57 0 002.21 2.58l1.12.27c2.21.54 3 1.87 3 3.06V36H23a2.33 2.33 0 00-.54-1.46zM15.05 4.08a.44.44 0 00.48-.44c0-.24-.17-.44-.65-.44h-.61c.03.57.34.88.78.88zm5 4.28c2-.31 2.89-.75 3.4-2.07a2.71 2.71 0 011.77-1.73v3.4h-.37c-2.17 0-3.36 1.12-3.43 3.91 0 2.11-.48 2.75-1.36 2.89a3.6 3.6 0 00.36-1.76 4.32 4.32 0 00-1.7-3.64c.1-.49.51-.87 1.28-1zm26.26 10.43c0 9.61-4 14.95-11.72 17.56-7.68-2.62-11.72-7.95-11.72-17.56v-8.33h23.44zM45 11.72H24.16v6.73H45zM34.59 35.06C41.07 32.75 44.64 28.2 45 19.7H24.19c.31 8.5 3.87 13.05 10.4 15.36zm8.22-31.87A12.8 12.8 0 0041.07 2v2.35h-1.73V1.16a6.83 6.83 0 00-1.76-.68v3.87h-2.11V.1a3.88 3.88 0 00-1.77 0v4.25h-2.1V.48a6.83 6.83 0 00-1.77.68v3.19H28.1V2a12.8 12.8 0 00-1.73 1.16v2.51h16.44zm0 3.5H26.36v1.26h16.45zm6.32 1.66c.82.14 1.22.51 1.32 1a4.32 4.32 0 00-1.7 3.65 3.6 3.6 0 00.37 1.77c-.88-.14-1.32-.78-1.36-2.89-.07-2.79-1.26-3.91-3.43-3.91H44V4.55a2.71 2.71 0 011.77 1.73c.47 1.33 1.32 1.77 3.36 2.08zm-2.45 26.17a2.33 2.33 0 00-.54 1.48h-.88v-.2c0-1.19.82-2.51 3-3.06l1.12-.27a2.57 2.57 0 002.21-2.58 2.72 2.72 0 00-2.28-2.51c0-3.4.92-5.57 3.53-6.93a3.62 3.62 0 013.16 3.4 2.61 2.61 0 00-1.94 2.41c-.78-.34-1.32-1.05-1.32-2.55a3.26 3.26 0 00-.54 1.87c0 2.21 1.7 3.4 4 3.6a2.17 2.17 0 01-2 1l-1.87 4.55A1.81 1.81 0 0150.49 36h-.71a3 3 0 01.54-1.46h-1.4a2.5 2.5 0 00-.47 1.46h-.88a2.49 2.49 0 01.43-1.48zm8.12-32a6.13 6.13 0 013.47-1.16 3.63 3.63 0 011.9.44 1.5 1.5 0 00-1.32.68h1.6c-.07.82-.68 1.32-1.7 1.43a5 5 0 011.46.82 2.16 2.16 0 001.46-1.49 8.48 8.48 0 011.7 5.4A8.31 8.31 0 0160 15.08v.44c0 1.94 1 2.58 2.21 2.58a1.48 1.48 0 001.6-1.7c0-1.16-.41-2.11-.41-3.19 0-1.9 1.09-3.09 2.75-3.09A2.83 2.83 0 0168.8 12a8.55 8.55 0 01.37 3.23v2.57a2.39 2.39 0 01-2.41-2.24 1.58 1.58 0 011.39-1.7v-.41c0-1.53-.75-2.55-2-2.55-1.05 0-1.63.75-1.63 2.11 0 1.77 1.49 3.26 1.49 5.78A3.1 3.1 0 0163.8 22c-.82-2-2.28-3.36-3.91-3.36a1.92 1.92 0 00-1.83 1.16 2.19 2.19 0 011-.2c1.94 0 3.47 1.6 4 4.72.37 2.21 1.49 3.13 3.16 3.3a2 2 0 01-1.94 1.53V34c0 1.43-.54 2-1.66 2h-.72a2.51 2.51 0 01.54-1.46h-1.39a2.24 2.24 0 00-.58 1.46h-.85a2.57 2.57 0 01.48-1.46h-1.43a2.27 2.27 0 00-.4 1.46h-.88v-.2a3 3 0 012.85-3l.61-.1c1-.14 1.29-.65 1.29-1.6 0-2.28-1.32-3.67-3.74-3.91-.17-4.42-1.87-7.13-5-8.32a5 5 0 003.6-4.94c0-2.31-1.49-3.77-3.19-3.77a2 2 0 00-2.24 2 1.7 1.7 0 011.66-1c1.22 0 2.11 1.09 2.11 2.79 0 2.34-1.63 3.7-3.84 4.08a2 2 0 00-1.94 2.14c-.1 1.7-.78 2.38-1.77 2.48v-3.76c2.24-1.26 3.19-2.65 3.4-4a2.53 2.53 0 01-1.05-2.07c0-1.7 1.12-3.19 3.94-3.4 2.38-.17 3.84-1.05 3.84-3.06a2.67 2.67 0 00-.07-.48 4.4 4.4 0 01-3.64 2.28 7 7 0 00-2 .37 3.74 3.74 0 01-.27-1.6 1.81 1.81 0 00-.68.24 3.47 3.47 0 01-1.49.34c-1.39 0-2.31-.75-2.31-1.8s.58-1.46 2-1.46a8.33 8.33 0 00.92-.07A1.75 1.75 0 0148.72 6a.91.91 0 001 .92 2 2 0 001.12-.37 2.58 2.58 0 011.36-.41 1.19 1.19 0 011.22 1h1.26a1.65 1.65 0 00-1.77-1.6h-.51a1.19 1.19 0 01-1.32-1.29V3.4A5 5 0 0052.8 3a5.07 5.07 0 012-.45zm-.68 1.53c.44 0 .75-.31.78-.88h-.61c-.48 0-.65.2-.65.44a.44.44 0 00.48.47zM60.3 7.2a2.13 2.13 0 00-1.77-2.28 3.44 3.44 0 01.41 1.73 3.74 3.74 0 01-2.1 3.35C59 10 60.3 8.94 60.3 7.2zm-.51 6.08a5.45 5.45 0 002.52-4.58 3.59 3.59 0 00-1.7-3.36 3.59 3.59 0 01.54 2 4.1 4.1 0 01-2.65 3.81 5.16 5.16 0 011.29 2.13zM90.68 36h-3.6l-9.14-24.48h3.81l7.2 19.91 7.24-19.91h3.74zm14-20.28a2.18 2.18 0 01-2.24-2.24 2.26 2.26 0 112.24 2.24zM106.41 36h-3.47V19.67h3.47zm8.36 0h-3.47V11.52h3.47zm8.23 0h-3.47V11.52H123zm12.33.34c-4.86 0-8.12-3.43-8.12-8.49a8.11 8.11 0 018.26-8.49 7.33 7.33 0 017.61 7.75c0 .41 0 1.19-.07 1.9h-12.28a4.5 4.5 0 004.69 4.21c2 0 3.16-.85 3.67-1.94h3.6a7.34 7.34 0 01-7.37 5.04zm4.28-10.06a4 4 0 00-4.25-3.84 4.47 4.47 0 00-4.55 3.84zm21.88 10.06c-4.59 0-8-3.53-8-8.49s3.36-8.49 8-8.49a6.74 6.74 0 015 2.11v-9.92H170V36h-3.4v-1.86a6.81 6.81 0 01-5.12 2.18zm.31-13.69c-2.82 0-4.59 2-4.59 5.2s1.83 5.23 4.65 5.23 4.72-2 4.72-5.23-1.91-5.22-4.8-5.22zm20.55 13.69c-4.86 0-8.12-3.43-8.12-8.49a8.11 8.11 0 018.26-8.49 7.33 7.33 0 017.61 7.75c0 .41 0 1.19-.07 1.9h-12.28a4.5 4.5 0 004.69 4.21c2 0 3.16-.85 3.67-1.94h3.6a7.34 7.34 0 01-7.37 5.04zm4.28-10.06a4 4 0 00-4.25-3.84 4.52 4.52 0 00-4.55 3.84zm29 9.72H201.8V11.55h3.5v21.17h10.36zm8.8.34c-3.47 0-5.78-2-5.78-5s2.31-4.89 5.91-4.89h4.21v-.78c0-2-1.09-3.19-3-3.19a2.7 2.7 0 00-3 2.45h-3.4c.17-3.23 2.68-5.61 6.49-5.61s6.35 2.41 6.35 6.29v5.88A11 11 0 00233.3 36h-3.7c-.2-.54-.37-1.22-.54-1.83a5.72 5.72 0 01-4.59 2.15zm.44-7.24c-1.7 0-2.72.85-2.72 2.11s1 2.17 2.82 2.17c2.24 0 3.81-1.66 3.81-4.28zm18.92 7.24c-4.48 0-7.17-2.85-7.17-7.41v-9.26h3.47v9.24c0 2.28 1.05 4 3.67 4s3.7-1.73 3.7-4v-9.24H251v9.24c0 4.55-2.69 7.41-7.17 7.41zm17.84 0c-4.21 0-6.9-2.34-7.24-5.71h3.47c.34 1.7 1.63 2.58 3.77 2.58 2 0 3-.78 3-2 0-.88-.58-1.7-2.34-1.87l-2.58-.27c-3-.31-4.82-2.07-4.82-4.72 0-3 2.55-5 6-5 4 0 6.56 2.28 6.86 5.37h-3.47c-.34-1.32-1.39-2.24-3.4-2.24-1.77 0-2.82.78-2.82 1.87 0 .85.61 1.6 2.17 1.77l2.41.27a7.58 7.58 0 012.79.71 4.55 4.55 0 012.57 4.19c0 3.02-2.15 5.03-6.33 5.03zm15.29 0c-3.47 0-5.78-2-5.78-5s2.31-4.89 5.91-4.89h4.21v-.78c0-2-1.09-3.19-3-3.19a2.7 2.7 0 00-3 2.45h-3.4c.17-3.23 2.68-5.61 6.49-5.61s6.32 2.41 6.32 6.29v5.88a11 11 0 001.12 4.51h-3.7c-.2-.54-.37-1.22-.54-1.83a5.72 5.72 0 01-4.55 2.15zm.44-7.24c-1.7 0-2.72.85-2.72 2.11s1 2.17 2.82 2.17c2.24 0 3.81-1.66 3.81-4.28zm26.71 6.9h-3.47v-9.23c0-2.62-1.12-4-3.33-4-2.62 0-4.21 1.83-4.21 4.76V36h-3.47V19.67h3.3v1.94a6.33 6.33 0 015-2.28c3.87 0 6.22 2.65 6.22 7.27zm19.06 0h-3.47v-9.23c0-2.62-1.12-4-3.33-4-2.62 0-4.21 1.83-4.21 4.76V36h-3.47V19.67h3.3v1.94a6.33 6.33 0 015-2.28c3.87 0 6.22 2.65 6.22 7.27zm12.13.34c-4.86 0-8.12-3.43-8.12-8.49a8.11 8.11 0 018.26-8.49 7.33 7.33 0 017.6 7.72c0 .41 0 1.19-.07 1.9h-12.26a4.5 4.5 0 004.69 4.21c2 0 3.16-.85 3.67-1.94h3.6a7.34 7.34 0 01-7.38 5.07zm4.28-10.06a4 4 0 00-4.25-3.84 4.52 4.52 0 00-4.55 3.84z" fill="#231f20"/></svg>